<svg width="776" height="504" viewBox="0 0 776 504" fill="none" xmlns="http://www.w3.org/2000/svg">
<path d="M0 327.95C0 230.813 28.1371 152.069 62.846 152.069H385.284C419.993 152.069 448.13 230.813 448.13 327.95C448.13 527.306 348.332 572.864 325.695 383.841L297.416 147.704C273.832 -49.235 174.298 -49.2347 150.713 147.705L122.434 383.842C99.7979 572.864 0 527.306 0 327.95Z" fill="#D9D9D9"/>
<path d="M327.87 327.95C327.87 230.813 356.007 152.069 390.716 152.069H713.154C747.863 152.069 776 230.813 776 327.95C776 527.306 676.202 572.864 653.566 383.841L625.287 147.704C601.702 -49.235 502.168 -49.2347 478.583 147.705L450.305 383.842C427.668 572.864 327.87 527.306 327.87 327.95Z" fill="#D9D9D9"/>
</svg>
